D:\school\WTK\thesis\model\3dpredictsim\Results\debug_batch\Pog_s1_tmt_aCst_d00_k1000_ig24_act_TTC_GRF.mot
nRows=15
nColumns=19

name D:\school\WTK\thesis\model\3dpredictsim\Results\debug_batch\Pog_s1_tmt_aCst_d00_k1000_ig24_act_TTC_GRF.mot
datacolumns 19
datarows 15
range 0.0000000000 0.1816586188
endheader
time 	ground_force_vx	ground_force_vy	ground_force_vz	ground_force_px	ground_force_py	ground_force_pz	1_ground_force_vx	1_ground_force_vy	1_ground_force_vz	1_ground_force_px	1_ground_force_py	1_ground_force_pz	ground_torque_x	ground_torque_y	ground_torque_z	1_ground_torque_x	1_ground_torque_y	1_ground_torque_z
        0.0000000000	      -29.8180936499	       24.1507504529	        8.1518752871	        0.2225513972	        0.0000000000	        0.0500105983	      116.0160758610	      425.5509458519	       -1.4030000477	       -0.3677026606	        0.0000000000	       -0.0334209343	        0.0000000000	        0.0000000000	        0.0000000000	        0.0000000000	        0.0000000000	        0.0000000000	
        0.0129756156	     -111.1211121978	      115.8292685128	       43.3227736434	        0.2301976805	        0.0000000000	        0.0480362927	       77.8276976939	      321.3300145822	       -6.5714775877	       -0.3594333457	        0.0000000000	       -0.0301617110	        0.0000000000	        0.0000000000	        0.0000000000	        0.0000000000	        0.0000000000	        0.0000000000	
        0.0259512313	      -69.4129158775	      335.8484737089	       11.2109258781	        0.2353396380	        0.0000000000	        0.0460366778	       39.7439191453	      207.4158375854	      -13.2659995663	       -0.3444277979	        0.0000000000	       -0.0237819386	        0.0000000000	        0.0000000000	        0.0000000000	        0.0000000000	        0.0000000000	        0.0000000000	
        0.0389268469	      -80.1875129335	      568.2831511580	       -8.8824252478	        0.2381100231	        0.0000000000	        0.0458615279	       25.6957629647	      158.6457767136	      -12.3585838908	       -0.3404158155	        0.0000000000	       -0.0217734681	        0.0000000000	        0.0000000000	        0.0000000000	        0.0000000000	        0.0000000000	        0.0000000000	
        0.0519024625	     -133.9138037759	      783.7740426942	      -16.2573988635	        0.2463882183	        0.0000000000	        0.0476749387	       18.8789422502	      107.2136033133	      -13.2396835025	       -0.3399843527	        0.0000000000	       -0.0220284541	        0.0000000000	        0.0000000000	        0.0000000000	        0.0000000000	        0.0000000000	        0.0000000000	
        0.0648780781	     -170.1979415599	      915.0667572427	      -21.6463099316	        0.2550567859	        0.0000000000	        0.0496378048	        2.3384843369	       43.3840507681	      -10.0126791421	       -0.3403895834	        0.0000000000	       -0.0224967168	        0.0000000000	        0.0000000000	        0.0000000000	        0.0000000000	        0.0000000000	        0.0000000000	
        0.0778536938	     -172.2278881588	      925.2631508477	      -20.0322443327	        0.2606418378	        0.0000000000	        0.0507667864	        0.2121139259	       -0.2133184287	        0.0047249271	        0.0000000000	        0.0000000000	        0.0000000000	        0.0000000000	        0.0000000000	        0.0000000000	        0.0000000000	        0.0000000000	        0.0000000000	
        0.0908293094	     -152.8422934861	      876.0927309537	      -19.1387416122	        0.2646191515	        0.0000000000	        0.0513937834	        0.0009492960	       -0.0007592405	       -0.0000636614	        0.0000000000	        0.0000000000	        0.0000000000	        0.0000000000	        0.0000000000	        0.0000000000	        0.0000000000	        0.0000000000	        0.0000000000	
        0.1038049250	     -131.5718347561	      810.4514164886	      -17.5089398434	        0.2681174273	        0.0000000000	        0.0517496751	        0.0023492636	       -0.0016063055	       -0.0001872624	        0.0000000000	        0.0000000000	        0.0000000000	        0.0000000000	        0.0000000000	        0.0000000000	        0.0000000000	        0.0000000000	        0.0000000000	
        0.1167805406	     -114.6712637289	      757.6678351337	      -16.6874408545	        0.2717323198	        0.0000000000	        0.0518489522	        0.0349687761	       -0.0212830590	       -0.0028787541	        0.0000000000	        0.0000000000	        0.0000000000	        0.0000000000	        0.0000000000	        0.0000000000	        0.0000000000	        0.0000000000	        0.0000000000	
        0.1297561563	      -99.9858402076	      716.7396410430	      -16.5768866736	        0.2754886556	        0.0000000000	        0.0518183304	       -0.2025701229	        0.1130030275	        0.0167183405	        0.0000000000	        0.0000000000	        0.0000000000	        0.0000000000	        0.0000000000	        0.0000000000	        0.0000000000	        0.0000000000	        0.0000000000	
        0.1427317719	      -88.4804505460	      687.0725387150	      -17.2817984847	        0.2798279991	        0.0000000000	        0.0516333404	       -0.1276137305	        0.0665090466	        0.0107161749	        0.0000000000	        0.0000000000	        0.0000000000	        0.0000000000	        0.0000000000	        0.0000000000	        0.0000000000	        0.0000000000	        0.0000000000	
        0.1557073875	      -78.0646199482	      663.7885702314	      -18.0148845624	        0.2844824233	        0.0000000000	        0.0513585155	       -0.0781760937	        0.0388499575	        0.0062759166	        0.0000000000	        0.0000000000	        0.0000000000	        0.0000000000	        0.0000000000	        0.0000000000	        0.0000000000	        0.0000000000	        0.0000000000	
        0.1686830031	      -68.2430618730	      642.6262868090	      -18.8951960021	        0.2889915691	        0.0000000000	        0.0511267522	       -0.0594023822	        0.0283402046	        0.0046902991	        0.0000000000	        0.0000000000	        0.0000000000	        0.0000000000	        0.0000000000	        0.0000000000	        0.0000000000	        0.0000000000	        0.0000000000	
        0.1816586188	      -59.0905657319	      624.2362069024	      -19.3811961449	        0.2932632631	        0.0000000000	        0.0509877461	       -0.0580920036	        0.0268004844	        0.0045455315	        0.0000000000	        0.0000000000	        0.0000000000	        0.0000000000	        0.0000000000	        0.0000000000	        0.0000000000	        0.0000000000	        0.0000000000	
